<svg width="19" height="19" viewBox="0 0 19 19" fill="none" xmlns="http://www.w3.org/2000/svg">
<path d="M5.9375 9.5C5.9375 9.81494 5.81239 10.117 5.58969 10.3397C5.36699 10.5624 5.06494 10.6875 4.75 10.6875C4.43506 10.6875 4.13301 10.5624 3.91031 10.3397C3.68761 10.117 3.5625 9.81494 3.5625 9.5C3.5625 9.18506 3.68761 8.88301 3.91031 8.66031C4.13301 8.43761 4.43506 8.3125 4.75 8.3125C5.06494 8.3125 5.36699 8.43761 5.58969 8.66031C5.81239 8.88301 5.9375 9.18506 5.9375 9.5ZM10.6875 9.5C10.6875 9.81494 10.5624 10.117 10.3397 10.3397C10.117 10.5624 9.81494 10.6875 9.5 10.6875C9.18506 10.6875 8.88301 10.5624 8.66031 10.3397C8.43761 10.117 8.3125 9.81494 8.3125 9.5C8.3125 9.18506 8.43761 8.88301 8.66031 8.66031C8.88301 8.43761 9.18506 8.3125 9.5 8.3125C9.81494 8.3125 10.117 8.43761 10.3397 8.66031C10.5624 8.88301 10.6875 9.18506 10.6875 9.5ZM14.25 10.6875C14.5649 10.6875 14.867 10.5624 15.0897 10.3397C15.3124 10.117 15.4375 9.81494 15.4375 9.5C15.4375 9.18506 15.3124 8.88301 15.0897 8.66031C14.867 8.43761 14.5649 8.3125 14.25 8.3125C13.9351 8.3125 13.633 8.43761 13.4103 8.66031C13.1876 8.88301 13.0625 9.18506 13.0625 9.5C13.0625 9.81494 13.1876 10.117 13.4103 10.3397C13.633 10.5624 13.9351 10.6875 14.25 10.6875Z" fill="black"/>
<path d="M2.57094 18.7661L2.59469 18.7613C4.76781 18.3302 6.09544 17.7614 6.71294 17.4491C7.62191 17.6924 8.55903 17.8146 9.5 17.8125C14.7464 17.8125 19 14.0909 19 9.5C19 4.90913 14.7464 1.1875 9.5 1.1875C4.25362 1.1875 0 4.90913 0 9.5C0 11.59 0.882313 13.5019 2.33938 14.9625C2.23782 15.9008 2.02904 16.8244 1.71712 17.7151L1.71356 17.7282C1.62482 17.9833 1.52819 18.2355 1.42381 18.4846C1.33 18.7055 1.51169 18.9525 1.748 18.9145C2.02309 18.8694 2.29743 18.8199 2.57094 18.7661ZM3.52094 15.0753C3.53757 14.9015 3.51565 14.7261 3.45674 14.5617C3.39783 14.3973 3.30338 14.2479 3.18012 14.1241C1.92138 12.8606 1.1875 11.2433 1.1875 9.5C1.1875 5.7095 4.75475 2.375 9.5 2.375C14.2453 2.375 17.8125 5.7095 17.8125 9.5C17.8125 13.2905 14.2453 16.625 9.5 16.625C8.66288 16.627 7.82916 16.5184 7.0205 16.302C6.73785 16.2263 6.43719 16.2576 6.17619 16.3899C5.71663 16.6226 4.70369 17.0667 3.04831 17.4503C3.27905 16.675 3.43727 15.8799 3.52094 15.0753Z" fill="black"/>
</svg>
